<svg width="246" height="66" viewBox="25 5 182 44" fill="none" xmlns="http://www.w3.org/2000/svg">
<path d="M47.3639 13.024C48.3665 13.024 49.4119 13.0987 50.4999 13.248C51.5879 13.376 52.8572 13.5573 54.3079 13.792V26.528C54.3079 29.5787 53.2945 31.9467 51.2679 33.632C51.0119 33.8453 50.4359 34.0267 49.5399 34.176C48.6439 34.3253 47.6305 34.4 46.4999 34.4C44.0465 34.4 42.1052 34.08 40.6759 33.44C40.6545 32.9707 40.6865 32.352 40.7719 31.584C40.8785 30.816 40.9852 30.208 41.0919 29.76C42.6279 29.9947 44.1319 30.112 45.6039 30.112C46.3505 30.112 46.9799 30.0693 47.4919 29.984C48.0252 29.92 48.3559 29.8133 48.4839 29.664C48.6545 29.4933 48.7825 28.8533 48.8679 27.744C48.8892 27.4453 48.8999 27.008 48.8999 26.432V25.632C48.3665 26.4213 47.6839 26.9867 46.8519 27.328C46.0199 27.6693 45.2732 27.84 44.6119 27.84C42.8199 27.84 41.4652 27.2533 40.5479 26.08C39.6305 24.9067 39.1719 23.1893 39.1719 20.928C39.1719 19.4347 39.3745 18.0373 39.7799 16.736C40.2065 15.4133 40.7825 14.496 41.5079 13.984C41.9772 13.664 42.7345 13.4293 43.7799 13.28C44.8465 13.1093 46.0412 13.024 47.3639 13.024ZM46.6919 23.84C47.4812 23.84 48.1959 23.712 48.8359 23.456V16.768C48.6012 16.7253 48.2492 16.6827 47.7799 16.64C47.5665 16.6187 47.2465 16.608 46.8199 16.608C46.1585 16.608 45.7425 16.672 45.5719 16.8C45.3372 16.9707 45.1452 17.4507 44.9959 18.24C44.8679 19.008 44.8039 19.8187 44.8039 20.672C44.8039 21.8453 44.9319 22.6667 45.1879 23.136C45.4652 23.6053 45.9665 23.84 46.6919 23.84ZM67.9426 12.96C68.22 12.96 68.508 12.992 68.8066 13.056C69.1266 13.12 69.3613 13.1947 69.5106 13.28C69.5106 13.7493 69.4573 14.528 69.3506 15.616C69.244 16.6827 69.148 17.44 69.0626 17.888C68.8493 17.8667 68.4546 17.856 67.8786 17.856C66.5346 17.856 65.34 17.9307 64.2946 18.08V28H58.8226V13.28H63.3986L64.0386 15.648H64.0706C64.6893 14.8373 65.3506 14.1867 66.0546 13.696C66.7586 13.2053 67.388 12.96 67.9426 12.96ZM79.9716 28.416C77.4116 28.416 75.4916 27.8187 74.2116 26.624C72.953 25.408 72.3236 23.4987 72.3236 20.896C72.3236 19.4667 72.4516 18.2187 72.7076 17.152C72.985 16.064 73.3156 15.3067 73.6996 14.88C74.1903 14.3253 75.0863 13.8667 76.3876 13.504C77.7103 13.1413 78.9476 12.96 80.0996 12.96C82.8516 12.96 84.8143 13.5467 85.9876 14.72C87.161 15.8933 87.7476 17.7707 87.7476 20.352C87.7476 23.1253 87.1183 25.1627 85.8596 26.464C84.601 27.7653 82.6383 28.416 79.9716 28.416ZM80.0676 24.672C80.8996 24.672 81.4436 24.384 81.6996 23.808C81.9556 23.2107 82.0836 22.1653 82.0836 20.672C82.0836 19.6267 82.0303 18.8267 81.9236 18.272C81.817 17.696 81.6143 17.28 81.3156 17.024C81.0383 16.7467 80.601 16.608 80.0036 16.608C79.1503 16.608 78.6596 16.6827 78.5316 16.832C78.361 16.9813 78.2223 17.4507 78.1156 18.24C78.009 19.0293 77.9556 19.8507 77.9556 20.704C77.9556 22.1547 78.0943 23.1787 78.3716 23.776C78.6703 24.3733 79.2356 24.672 80.0676 24.672ZM106.476 13.28V28H102.028L101.42 25.536C99.8844 27.392 98.0497 28.32 95.9164 28.32C95.1484 28.32 94.423 28.2133 93.7404 28C93.079 27.7867 92.5777 27.4773 92.2364 27.072C92.0444 26.8373 91.895 26.2507 91.7884 25.312C91.703 24.3733 91.6604 22.944 91.6604 21.024V13.28H97.1324V20.96C97.1324 21.3867 97.143 21.888 97.1644 22.464C97.1857 23.04 97.2497 23.4027 97.3564 23.552C97.5057 23.7653 97.9324 23.872 98.6364 23.872L99.1484 23.84C99.7457 23.8187 100.364 23.68 101.004 23.424V13.28H106.476ZM121.132 12.96C122.668 12.96 123.884 13.472 124.78 14.496C125.697 15.4987 126.156 17.2587 126.156 19.776C126.156 21.6533 125.975 23.1893 125.612 24.384C125.249 25.5573 124.833 26.336 124.364 26.72C123.895 27.104 123.073 27.4133 121.9 27.648C120.748 27.8827 119.553 28 118.316 28C117.953 28 117.345 27.9787 116.492 27.936V32.48L111.02 32.704V13.28H115.5L116.044 15.552C116.599 14.7627 117.303 14.1333 118.156 13.664C119.031 13.1947 120.023 12.96 121.132 12.96ZM119.852 24.096C120.087 23.9253 120.257 23.4453 120.364 22.656C120.471 21.8453 120.524 21.0773 120.524 20.352C120.524 19.1573 120.375 18.272 120.076 17.696C119.777 17.12 119.18 16.832 118.284 16.832C117.644 16.832 117.047 16.896 116.492 17.024V24.128L117.388 24.224C117.665 24.2453 118.06 24.256 118.572 24.256C119.297 24.256 119.724 24.2027 119.852 24.096ZM142.125 23.008C142.125 24.9067 141.517 26.272 140.301 27.104C139.107 27.936 137.4 28.352 135.181 28.352C133.624 28.352 131.832 28.128 129.805 27.68C129.848 27.2533 129.944 26.6453 130.093 25.856C130.264 25.0453 130.403 24.4267 130.509 24C131.277 24.128 132.131 24.2347 133.069 24.32C134.008 24.384 134.808 24.416 135.469 24.416C136.045 24.416 136.397 24.384 136.525 24.32C136.547 24.2987 136.568 24.2453 136.589 24.16C136.632 24.0533 136.653 23.9467 136.653 23.84C136.653 23.4133 136.387 23.1253 135.853 22.976C135.683 22.9333 135.032 22.752 133.901 22.432C132.771 22.112 131.843 21.536 131.117 20.704C130.413 19.8507 130.061 18.7947 130.061 17.536C130.061 16.8747 130.211 16.1387 130.509 15.328C130.808 14.5173 131.128 14.0053 131.469 13.792C131.725 13.6213 132.344 13.4507 133.325 13.28C134.307 13.088 135.213 12.992 136.045 12.992C137.816 12.992 139.597 13.12 141.389 13.376C141.389 13.76 141.336 14.4107 141.229 15.328C141.123 16.224 141.027 16.7893 140.941 17.024C139.128 16.7893 137.667 16.672 136.557 16.672C135.981 16.672 135.608 16.704 135.437 16.768C135.395 16.7893 135.352 16.8533 135.309 16.96C135.267 17.0453 135.245 17.1627 135.245 17.312C135.245 17.6107 135.341 17.824 135.533 17.952C135.725 18.1013 136.227 18.2827 137.037 18.496C137.997 18.7733 138.819 19.0613 139.501 19.36C140.205 19.6587 140.813 20.1067 141.325 20.704C141.859 21.3013 142.125 22.0693 142.125 23.008Z" fill="#00FF38"/>
<path d="M49.3639 13.024C50.3665 13.024 51.4119 13.0987 52.4999 13.248C53.5879 13.376 54.8572 13.5573 56.3079 13.792V26.528C56.3079 29.5787 55.2945 31.9467 53.2679 33.632C53.0119 33.8453 52.4359 34.0267 51.5399 34.176C50.6439 34.3253 49.6305 34.4 48.4999 34.4C46.0465 34.4 44.1052 34.08 42.6759 33.44C42.6545 32.9707 42.6865 32.352 42.7719 31.584C42.8785 30.816 42.9852 30.208 43.0919 29.76C44.6279 29.9947 46.1319 30.112 47.6039 30.112C48.3505 30.112 48.9799 30.0693 49.4919 29.984C50.0252 29.92 50.3559 29.8133 50.4839 29.664C50.6545 29.4933 50.7825 28.8533 50.8679 27.744C50.8892 27.4453 50.8999 27.008 50.8999 26.432V25.632C50.3665 26.4213 49.6839 26.9867 48.8519 27.328C48.0199 27.6693 47.2732 27.84 46.6119 27.84C44.8199 27.84 43.4652 27.2533 42.5479 26.08C41.6305 24.9067 41.1719 23.1893 41.1719 20.928C41.1719 19.4347 41.3745 18.0373 41.7799 16.736C42.2065 15.4133 42.7825 14.496 43.5079 13.984C43.9772 13.664 44.7345 13.4293 45.7799 13.28C46.8465 13.1093 48.0412 13.024 49.3639 13.024ZM48.6919 23.84C49.4812 23.84 50.1959 23.712 50.8359 23.456V16.768C50.6012 16.7253 50.2492 16.6827 49.7799 16.64C49.5665 16.6187 49.2465 16.608 48.8199 16.608C48.1585 16.608 47.7425 16.672 47.5719 16.8C47.3372 16.9707 47.1452 17.4507 46.9959 18.24C46.8679 19.008 46.8039 19.8187 46.8039 20.672C46.8039 21.8453 46.9319 22.6667 47.1879 23.136C47.4652 23.6053 47.9665 23.84 48.6919 23.84ZM69.9426 12.96C70.22 12.96 70.508 12.992 70.8066 13.056C71.1266 13.12 71.3613 13.1947 71.5106 13.28C71.5106 13.7493 71.4573 14.528 71.3506 15.616C71.244 16.6827 71.148 17.44 71.0626 17.888C70.8493 17.8667 70.4546 17.856 69.8786 17.856C68.5346 17.856 67.34 17.9307 66.2946 18.08V28H60.8226V13.28H65.3986L66.0386 15.648H66.0706C66.6893 14.8373 67.3506 14.1867 68.0546 13.696C68.7586 13.2053 69.388 12.96 69.9426 12.96ZM81.9716 28.416C79.4116 28.416 77.4916 27.8187 76.2116 26.624C74.953 25.408 74.3236 23.4987 74.3236 20.896C74.3236 19.4667 74.4516 18.2187 74.7076 17.152C74.985 16.064 75.3156 15.3067 75.6996 14.88C76.1903 14.3253 77.0863 13.8667 78.3876 13.504C79.7103 13.1413 80.9476 12.96 82.0996 12.96C84.8516 12.96 86.8143 13.5467 87.9876 14.72C89.161 15.8933 89.7476 17.7707 89.7476 20.352C89.7476 23.1253 89.1183 25.1627 87.8596 26.464C86.601 27.7653 84.6383 28.416 81.9716 28.416ZM82.0676 24.672C82.8996 24.672 83.4436 24.384 83.6996 23.808C83.9556 23.2107 84.0836 22.1653 84.0836 20.672C84.0836 19.6267 84.0303 18.8267 83.9236 18.272C83.817 17.696 83.6143 17.28 83.3156 17.024C83.0383 16.7467 82.601 16.608 82.0036 16.608C81.1503 16.608 80.6596 16.6827 80.5316 16.832C80.361 16.9813 80.2223 17.4507 80.1156 18.24C80.009 19.0293 79.9556 19.8507 79.9556 20.704C79.9556 22.1547 80.0943 23.1787 80.3716 23.776C80.6703 24.3733 81.2356 24.672 82.0676 24.672ZM108.476 13.28V28H104.028L103.42 25.536C101.884 27.392 100.05 28.32 97.9164 28.32C97.1484 28.32 96.423 28.2133 95.7404 28C95.079 27.7867 94.5777 27.4773 94.2364 27.072C94.0444 26.8373 93.895 26.2507 93.7884 25.312C93.703 24.3733 93.6604 22.944 93.6604 21.024V13.28H99.1324V20.96C99.1324 21.3867 99.143 21.888 99.1644 22.464C99.1857 23.04 99.2497 23.4027 99.3564 23.552C99.5057 23.7653 99.9324 23.872 100.636 23.872L101.148 23.84C101.746 23.8187 102.364 23.68 103.004 23.424V13.28H108.476ZM123.132 12.96C124.668 12.96 125.884 13.472 126.78 14.496C127.697 15.4987 128.156 17.2587 128.156 19.776C128.156 21.6533 127.975 23.1893 127.612 24.384C127.249 25.5573 126.833 26.336 126.364 26.72C125.895 27.104 125.073 27.4133 123.9 27.648C122.748 27.8827 121.553 28 120.316 28C119.953 28 119.345 27.9787 118.492 27.936V32.48L113.02 32.704V13.28H117.5L118.044 15.552C118.599 14.7627 119.303 14.1333 120.156 13.664C121.031 13.1947 122.023 12.96 123.132 12.96ZM121.852 24.096C122.087 23.9253 122.257 23.4453 122.364 22.656C122.471 21.8453 122.524 21.0773 122.524 20.352C122.524 19.1573 122.375 18.272 122.076 17.696C121.777 17.12 121.18 16.832 120.284 16.832C119.644 16.832 119.047 16.896 118.492 17.024V24.128L119.388 24.224C119.665 24.2453 120.06 24.256 120.572 24.256C121.297 24.256 121.724 24.2027 121.852 24.096ZM144.125 23.008C144.125 24.9067 143.517 26.272 142.301 27.104C141.107 27.936 139.4 28.352 137.181 28.352C135.624 28.352 133.832 28.128 131.805 27.68C131.848 27.2533 131.944 26.6453 132.093 25.856C132.264 25.0453 132.403 24.4267 132.509 24C133.277 24.128 134.131 24.2347 135.069 24.32C136.008 24.384 136.808 24.416 137.469 24.416C138.045 24.416 138.397 24.384 138.525 24.32C138.547 24.2987 138.568 24.2453 138.589 24.16C138.632 24.0533 138.653 23.9467 138.653 23.84C138.653 23.4133 138.387 23.1253 137.853 22.976C137.683 22.9333 137.032 22.752 135.901 22.432C134.771 22.112 133.843 21.536 133.117 20.704C132.413 19.8507 132.061 18.7947 132.061 17.536C132.061 16.8747 132.211 16.1387 132.509 15.328C132.808 14.5173 133.128 14.0053 133.469 13.792C133.725 13.6213 134.344 13.4507 135.325 13.28C136.307 13.088 137.213 12.992 138.045 12.992C139.816 12.992 141.597 13.12 143.389 13.376C143.389 13.76 143.336 14.4107 143.229 15.328C143.123 16.224 143.027 16.7893 142.941 17.024C141.128 16.7893 139.667 16.672 138.557 16.672C137.981 16.672 137.608 16.704 137.437 16.768C137.395 16.7893 137.352 16.8533 137.309 16.96C137.267 17.0453 137.245 17.1627 137.245 17.312C137.245 17.6107 137.341 17.824 137.533 17.952C137.725 18.1013 138.227 18.2827 139.037 18.496C139.997 18.7733 140.819 19.0613 141.501 19.36C142.205 19.6587 142.813 20.1067 143.325 20.704C143.859 21.3013 144.125 22.0693 144.125 23.008Z" fill="#382BF0"/>
</svg>
